<?xml version="1.0" encoding="UTF-8"?>
<!DOCTYPE svg PUBLIC "-//W3C//DTD SVG 1.1//EN" "http://www.w3.org/Graphics/SVG/1.1/DTD/svg11.dtd">
<!-- Creator: CorelDRAW -->
<svg xmlns="http://www.w3.org/2000/svg" xml:space="preserve" width="81.505mm" height="12.4702mm" version="1.1" style="shape-rendering:geometricPrecision; text-rendering:geometricPrecision; image-rendering:optimizeQuality; fill-rule:evenodd; clip-rule:evenodd"
viewBox="0 0 8150.5 1247.02"
 xmlns:xlink="http://www.w3.org/1999/xlink"
 xmlns:xodm="http://www.corel.com/coreldraw/odm/2003">
 <defs>
  <style type="text/css">
   <![CDATA[
    .fil1 {fill:black}
    .fil0 {fill:#1A1A1A;fill-rule:nonzero}
   ]]>
  </style>
 </defs>
 <g id="Camada_x0020_1">
  <metadata id="CorelCorpID_0Corel-Layer"/>
  <path class="fil0" d="M2278.94 192.69l-532.5 0c-49.69,0 -89.18,40.77 -89.18,89.18l0 714.68c0,48.41 39.49,87.9 89.18,87.9l532.5 0c48.41,0 89.18,-39.49 89.18,-87.9l0 -211.48 -300.65 0 0 164.34 -109.56 0 0 -621.68 109.56 0 0 236.95 300.65 0 0 -282.81c0,-48.41 -40.77,-89.18 -89.18,-89.18zm810.23 0l-621.68 0 0 891.76 300.65 0 0 -287.91 108.28 287.91 300.65 0 -118.47 -284.09 30.57 0c48.41,0 89.18,-39.49 89.18,-89.17l0 -429.32c0,-48.41 -40.77,-89.18 -89.18,-89.18zm-211.47 135.04l0 337.59 -109.56 0 0 -337.59 109.56 0zm1008.95 -135.04l-532.5 0c-49.69,0 -89.18,40.77 -89.18,89.18l0 713.4c0,49.69 39.49,89.18 89.18,89.18l532.5 0c48.41,0 89.18,-39.49 89.18,-89.18l0 -713.4c0,-48.41 -40.77,-89.18 -89.18,-89.18zm-211.47 756.72l-109.56 0 0 -621.68 109.56 0 0 621.68zm1021.7 -756.72l-621.68 0 0 891.76 300.65 0 0 -271.35 321.03 0c48.41,0 89.18,-39.49 89.18,-89.18l0 -442.05c0,-48.41 -40.77,-89.18 -89.18,-89.18zm-321.03 485.37l0 -350.33 109.56 0 0 350.33 -109.56 0zm1010.23 -145.23l81.53 551.62 285.36 0 155.42 -891.76 -300.65 0 -48.41 487.92 -71.34 -487.92 -205.1 0 -71.34 487.92 -48.41 -487.92 -300.65 0 155.42 891.76 285.36 0 81.53 -551.62 1.28 0zm598.75 -250.96l0 802.58 300.65 0 0 -406.39 104.46 0 0 406.39 300.65 0 0 -891.76 -616.59 0c-49.68,0 -89.17,40.77 -89.17,89.18zm300.65 45.86l104.46 0 0 215.3 -104.46 0 0 -215.3zm1128.71 -135.04l-621.68 0 0 891.76 300.65 0 0 -287.91 108.28 287.91 300.65 0 -118.47 -284.09 30.57 0c48.41,0 89.18,-39.49 89.18,-89.17l0 -429.32c0,-48.41 -40.77,-89.18 -89.18,-89.18zm-211.47 135.04l0 337.59 -109.56 0 0 -337.59 109.56 0zm389.82 -135.04l0 891.76 554.16 0 0 -135.04 -253.51 0 0 -271.35 183.44 0 0 -135.03 -183.44 0 0 -215.3 253.51 0 0 -135.04 -554.16 0z"/>
  <path class="fil1" d="M-3.81 7.53l1247.02 0 0 1247.02 -1247.02 0 0 -1247.02zm623.98 180.54l-383.21 221.25 0 442.49 383.21 221.25 383.21 -221.25 0 -217.99 -383.21 221.24 -194.42 -112.25 0 -224.5 194.42 112.25 383.21 -221.24 -383.21 -221.25z"/>
 </g>
</svg>
